# xmcd CD database file
#
# Track frame offsets:
#	150
#	13727
#	26800
#
# Disc length: 558 seconds
#
# Revision: 0
# Processed by: cddbd v1.5.1PL0 Copyright (c) Steve Scherf et al.
# Submitted via: CDex 1.51
#
DISCID=1d022c03
DTITLE=Dagmar - Ein Sonntag mit Dir
DYEAR=1998
DGENRE=Country
TTITLE0=Ein Sonntag mit Dir
TTITLE1=Brave Jungen Kommem in den Himmel
TTITLE2=Nur ein bisschen Zärtlichkeit
EXTD=YEAR: 1998
EXTT0=
EXTT1=
EXTT2=
PLAYORDER=
